<svg width="739" height="131" viewBox="0 0 739 131" fill="none" xmlns="http://www.w3.org/2000/svg">
<g filter="url(#filter0_d_903_150)">
<path d="M57.919 31C57.6728 27.9223 56.5187 25.5218 54.4567 23.7983C52.4254 22.0748 49.3324 21.2131 45.1776 21.2131C42.5308 21.2131 40.361 21.5362 38.6683 22.1825C37.0064 22.7981 35.7753 23.6444 34.9751 24.7216C34.175 25.7988 33.7595 27.0298 33.7287 28.4148C33.6671 29.5535 33.8672 30.5845 34.3288 31.5078C34.8213 32.4003 35.5907 33.2159 36.6371 33.9545C37.6835 34.6624 39.0223 35.3087 40.6534 35.8935C42.2846 36.4782 44.2235 37.0014 46.4702 37.4631L54.2259 39.125C59.4579 40.233 63.9358 41.6948 67.6598 43.5107C71.3838 45.3265 74.4306 47.4654 76.8004 49.9276C79.1702 52.3589 80.9091 55.098 82.0171 58.1449C83.1558 61.1918 83.7405 64.5156 83.7713 68.1165C83.7405 74.3333 82.1863 79.5961 79.1087 83.9048C76.031 88.2135 71.63 91.4912 65.9055 93.7379C60.2119 95.9846 53.3641 97.108 45.3622 97.108C37.1449 97.108 29.974 95.8923 23.8494 93.4609C17.7557 91.0296 13.0161 87.2902 9.63068 82.2429C6.27604 77.1648 4.58333 70.6709 4.55256 62.7614H28.9276C29.0814 65.6544 29.8047 68.0857 31.0973 70.0554C32.3899 72.0251 34.2057 73.5178 36.5447 74.5334C38.9145 75.549 41.7306 76.0568 44.9929 76.0568C47.732 76.0568 50.0249 75.7183 51.8715 75.0412C53.718 74.3641 55.1184 73.4254 56.0724 72.2251C57.0265 71.0249 57.5189 69.6553 57.5497 68.1165C57.5189 66.67 57.0419 65.4081 56.1186 64.331C55.2261 63.223 53.7488 62.2382 51.6868 61.3764C49.6248 60.4839 46.8395 59.6529 43.331 58.8835L33.9134 56.8523C25.5421 55.0365 18.9406 52.005 14.1087 47.7578C9.30753 43.4799 6.92235 37.6477 6.95312 30.2614C6.92235 24.2599 8.52273 19.0125 11.7543 14.5192C15.0166 9.99503 19.5253 6.47111 25.2805 3.94744C31.0665 1.42377 37.6989 0.161928 45.1776 0.161928C52.8101 0.161928 59.4117 1.43915 64.9822 3.99361C70.5528 6.54806 74.8461 10.1489 77.8622 14.7962C80.9091 19.4126 82.4479 24.8139 82.4787 31H57.919ZM109.416 122.591C106.492 122.591 103.707 122.36 101.06 121.898C98.4132 121.468 96.0896 120.867 94.0891 120.098L99.6289 102.001C101.722 102.74 103.63 103.217 105.353 103.433C107.108 103.648 108.6 103.525 109.831 103.063C111.093 102.602 112.001 101.724 112.555 100.432L113.109 99.1392L88.18 25.0909H114.771L126.22 74.2102H126.958L138.592 25.0909H165.368L139.515 101.909C138.223 105.818 136.345 109.326 133.883 112.435C131.452 115.574 128.251 118.051 124.281 119.867C120.311 121.683 115.356 122.591 109.416 122.591ZM198.098 56.1136V96H172.615V25.0909H196.806V38.571H197.544C199.083 34.0776 201.792 30.5537 205.669 27.9993C209.578 25.4448 214.133 24.1676 219.334 24.1676C224.351 24.1676 228.706 25.3217 232.399 27.63C236.123 29.9074 239 33.0466 241.032 37.0476C243.094 41.0485 244.109 45.6188 244.078 50.7585V96H218.596V56.1136C218.626 52.6051 217.734 49.8506 215.918 47.8501C214.133 45.8497 211.64 44.8494 208.439 44.8494C206.346 44.8494 204.515 45.3111 202.946 46.2344C201.407 47.1269 200.222 48.4195 199.391 50.1122C198.56 51.7741 198.129 53.7746 198.098 56.1136ZM290.82 97.2926C283.126 97.2926 276.54 95.7692 271.062 92.7223C265.584 89.6446 261.383 85.3667 258.459 79.8885C255.535 74.3795 254.073 67.9934 254.073 60.7301C254.073 53.4669 255.535 47.0961 258.459 41.6179C261.383 36.1089 265.584 31.831 271.062 28.7841C276.54 25.7064 283.126 24.1676 290.82 24.1676C297.776 24.1676 303.793 25.4295 308.871 27.9531C313.98 30.446 317.934 33.9853 320.735 38.571C323.536 43.1259 324.951 48.4811 324.982 54.6364H301.346C301.007 50.9124 299.93 48.081 298.114 46.142C296.329 44.1723 294.021 43.1875 291.19 43.1875C288.974 43.1875 287.035 43.8338 285.373 45.1264C283.711 46.3883 282.418 48.3118 281.495 50.897C280.572 53.4515 280.11 56.6676 280.11 60.5455C280.11 64.4233 280.572 67.6548 281.495 70.2401C282.418 72.7945 283.711 74.718 285.373 76.0107C287.035 77.2725 288.974 77.9034 291.19 77.9034C293.067 77.9034 294.729 77.4725 296.175 76.6108C297.622 75.7183 298.791 74.4257 299.684 72.733C300.607 71.0095 301.161 68.9167 301.346 66.4545H324.982C324.89 72.7022 323.459 78.1496 320.689 82.7969C317.919 87.4134 313.995 90.9834 308.917 93.5071C303.87 96.0308 297.837 97.2926 290.82 97.2926ZM386.093 31C385.847 27.9223 384.693 25.5218 382.631 23.7983C380.599 22.0748 377.506 21.2131 373.351 21.2131C370.705 21.2131 368.535 21.5362 366.842 22.1825C365.18 22.7981 363.949 23.6444 363.149 24.7216C362.349 25.7988 361.933 27.0298 361.903 28.4148C361.841 29.5535 362.041 30.5845 362.503 31.5078C362.995 32.4003 363.765 33.2159 364.811 33.9545C365.857 34.6624 367.196 35.3087 368.827 35.8935C370.458 36.4782 372.397 37.0014 374.644 37.4631L382.4 39.125C387.632 40.233 392.11 41.6948 395.834 43.5107C399.558 45.3265 402.604 47.4654 404.974 49.9276C407.344 52.3589 409.083 55.098 410.191 58.1449C411.33 61.1918 411.914 64.5156 411.945 68.1165C411.914 74.3333 410.36 79.5961 407.282 83.9048C404.205 88.2135 399.804 91.4912 394.079 93.7379C388.386 95.9846 381.538 97.108 373.536 97.108C365.319 97.108 358.148 95.8923 352.023 93.4609C345.93 91.0296 341.19 87.2902 337.805 82.2429C334.45 77.1648 332.757 70.6709 332.726 62.7614H357.101C357.255 65.6544 357.979 68.0857 359.271 70.0554C360.564 72.0251 362.38 73.5178 364.719 74.5334C367.088 75.549 369.904 76.0568 373.167 76.0568C375.906 76.0568 378.199 75.7183 380.045 75.0412C381.892 74.3641 383.292 73.4254 384.246 72.2251C385.2 71.0249 385.693 69.6553 385.724 68.1165C385.693 66.67 385.216 65.4081 384.292 64.331C383.4 63.223 381.923 62.2382 379.861 61.3764C377.799 60.4839 375.013 59.6529 371.505 58.8835L362.087 56.8523C353.716 55.0365 347.114 52.005 342.282 47.7578C337.481 43.4799 335.096 37.6477 335.127 30.2614C335.096 24.2599 336.697 19.0125 339.928 14.5192C343.19 9.99503 347.699 6.47111 353.454 3.94744C359.24 1.42377 365.873 0.161928 373.351 0.161928C380.984 0.161928 387.586 1.43915 393.156 3.99361C398.727 6.54806 403.02 10.1489 406.036 14.7962C409.083 19.4126 410.622 24.8139 410.653 31H386.093ZM447.561 56.1136V96H422.078V25.0909H446.269V38.571H447.007C448.546 34.0776 451.254 30.5537 455.132 27.9993C459.041 25.4448 463.596 24.1676 468.797 24.1676C473.814 24.1676 478.169 25.3217 481.862 27.63C485.586 29.9074 488.463 33.0466 490.494 37.0476C492.557 41.0485 493.572 45.6188 493.541 50.7585V96H468.058V56.1136C468.089 52.6051 467.197 49.8506 465.381 47.8501C463.596 45.8497 461.103 44.8494 457.902 44.8494C455.809 44.8494 453.978 45.3111 452.409 46.2344C450.87 47.1269 449.685 48.4195 448.854 50.1122C448.023 51.7741 447.592 53.7746 447.561 56.1136ZM525.88 97.108C521.356 97.108 517.355 96.3693 513.877 94.892C510.43 93.384 507.722 91.1065 505.752 88.0597C503.782 85.0128 502.797 81.1349 502.797 76.4261C502.797 72.5483 503.459 69.2398 504.782 66.5007C506.106 63.7308 507.952 61.4688 510.322 59.7145C512.692 57.9602 515.447 56.6214 518.586 55.6982C521.756 54.7749 525.172 54.1747 528.834 53.8977C532.805 53.59 535.99 53.2206 538.39 52.7898C540.822 52.3281 542.576 51.6972 543.653 50.897C544.73 50.0661 545.269 48.9735 545.269 47.6193V47.4347C545.269 45.5881 544.561 44.1723 543.145 43.1875C541.73 42.2026 539.914 41.7102 537.698 41.7102C535.267 41.7102 533.282 42.2488 531.743 43.326C530.235 44.3724 529.327 45.9882 529.019 48.1733H505.567C505.875 43.8646 507.245 39.8944 509.676 36.2628C512.138 32.6004 515.724 29.6766 520.432 27.4915C525.141 25.2756 531.019 24.1676 538.067 24.1676C543.145 24.1676 547.7 24.7678 551.732 25.968C555.764 27.1375 559.195 28.7841 562.027 30.9077C564.858 33.0005 567.013 35.4626 568.49 38.294C569.998 41.0947 570.752 44.1416 570.752 47.4347V96H546.931V86.0284H546.377C544.961 88.6752 543.238 90.8142 541.206 92.4453C539.206 94.0765 536.913 95.2614 534.328 96C531.773 96.7386 528.957 97.108 525.88 97.108ZM534.189 81.0426C536.128 81.0426 537.944 80.6425 539.637 79.8423C541.36 79.0421 542.761 77.888 543.838 76.38C544.915 74.8719 545.454 73.0407 545.454 70.8864V64.9773C544.777 65.2543 544.053 65.5159 543.284 65.7621C542.545 66.0083 541.745 66.2391 540.883 66.4545C540.052 66.67 539.16 66.87 538.206 67.0547C537.282 67.2393 536.313 67.4086 535.297 67.5625C533.328 67.8703 531.712 68.3781 530.45 69.0859C529.219 69.763 528.296 70.6094 527.68 71.625C527.095 72.6098 526.803 73.7178 526.803 74.9489C526.803 76.9186 527.496 78.4266 528.881 79.473C530.265 80.5194 532.035 81.0426 534.189 81.0426ZM617.09 97.2926C609.396 97.2926 602.81 95.7692 597.331 92.7223C591.853 89.6446 587.652 85.3667 584.728 79.8885C581.805 74.3795 580.343 67.9934 580.343 60.7301C580.343 53.4669 581.805 47.0961 584.728 41.6179C587.652 36.1089 591.853 31.831 597.331 28.7841C602.81 25.7064 609.396 24.1676 617.09 24.1676C624.045 24.1676 630.062 25.4295 635.14 27.9531C640.249 30.446 644.204 33.9853 647.005 38.571C649.805 43.1259 651.221 48.4811 651.252 54.6364H627.615C627.277 50.9124 626.2 48.081 624.384 46.142C622.599 44.1723 620.291 43.1875 617.459 43.1875C615.243 43.1875 613.304 43.8338 611.642 45.1264C609.98 46.3883 608.688 48.3118 607.765 50.897C606.841 53.4515 606.38 56.6676 606.38 60.5455C606.38 64.4233 606.841 67.6548 607.765 70.2401C608.688 72.7945 609.98 74.718 611.642 76.0107C613.304 77.2725 615.243 77.9034 617.459 77.9034C619.337 77.9034 620.998 77.4725 622.445 76.6108C623.891 75.7183 625.061 74.4257 625.953 72.733C626.877 71.0095 627.431 68.9167 627.615 66.4545H651.252C651.159 72.7022 649.728 78.1496 646.958 82.7969C644.189 87.4134 640.265 90.9834 635.186 93.5071C630.139 96.0308 624.107 97.2926 617.09 97.2926ZM684.664 79.196L684.848 48.9119H688.172L705.345 25.0909H733.968L705.161 62.2074H697.959L684.664 79.196ZM661.766 96V1.45454H687.249V96H661.766ZM705.53 96L689.28 67.9318L705.899 49.8352L734.706 96H705.53Z" fill="#252545"/>
</g>
<defs>
<filter id="filter0_d_903_150" x="0.552734" y="0.162109" width="738.153" height="130.429" filterUnits="userSpaceOnUse" color-interpolation-filters="sRGB">
<feFlood flood-opacity="0" result="BackgroundImageFix"/>
<feColorMatrix in="SourceAlpha" type="matrix" values="0 0 0 0 0 0 0 0 0 0 0 0 0 0 0 0 0 0 127 0" result="hardAlpha"/>
<feOffset dy="4"/>
<feGaussianBlur stdDeviation="2"/>
<feComposite in2="hardAlpha" operator="out"/>
<feColorMatrix type="matrix" values="0 0 0 0 0 0 0 0 0 0 0 0 0 0 0 0 0 0 0.25 0"/>
<feBlend mode="normal" in2="BackgroundImageFix" result="effect1_dropShadow_903_150"/>
<feBlend mode="normal" in="SourceGraphic" in2="effect1_dropShadow_903_150" result="shape"/>
</filter>
</defs>
</svg>
