<svg width="180" height="92" viewBox="0 0 180 92" fill="none" xmlns="http://www.w3.org/2000/svg">
<rect width="180" height="92" fill="#E5E5E5"/>
<path d="M102.014 44.1813C103.102 44.1843 104.18 43.9714 105.186 43.5549C106.191 43.1384 107.104 42.5266 107.871 41.7549L115.842 33.7894C116.472 33.159 116.53 32.1331 115.93 31.4717C115.779 31.3055 115.596 31.1716 115.392 31.0783C115.188 30.9849 114.967 30.934 114.743 30.9286C114.519 30.9232 114.296 30.9634 114.087 31.0468C113.879 31.1301 113.69 31.255 113.531 31.4137L106.427 38.5128C106.188 38.751 105.865 38.8849 105.528 38.8849C105.191 38.8849 104.867 38.751 104.629 38.5128C104.133 38.018 104.16 37.1816 104.655 36.6868L111.728 29.6136C111.887 29.455 112.011 29.2659 112.095 29.0577C112.178 28.8495 112.218 28.6266 112.213 28.4024C112.207 28.1783 112.156 27.9575 112.063 27.7536C111.97 27.5497 111.836 27.3669 111.67 27.2161C111.37 26.9443 110.979 26.7947 110.575 26.7969C110.348 26.797 110.123 26.8418 109.913 26.9289C109.703 27.0159 109.513 27.1434 109.352 27.3041L102.285 34.3701C102.047 34.6083 101.723 34.7422 101.386 34.7422C101.049 34.7422 100.726 34.6083 100.487 34.3701C99.9921 33.8753 100.018 33.0389 100.513 32.5441L107.586 25.4729C107.745 25.3144 107.87 25.1253 107.953 24.9171C108.036 24.7089 108.076 24.486 108.071 24.2618C108.065 24.0376 108.015 23.8169 107.921 23.613C107.828 23.4091 107.694 23.2262 107.528 23.0755C107.229 22.8036 106.838 22.654 106.433 22.6563C105.975 22.6568 105.535 22.8392 105.211 23.1635L97.2451 31.129C96.4731 31.8965 95.8621 32.8094 95.4451 33.8149C95.0291 34.8205 94.8161 35.8986 94.8191 36.987V37.8389C94.8191 38.0567 94.7761 38.2724 94.6931 38.4737C94.6091 38.6749 94.4871 38.8578 94.3331 39.0117L90.6471 42.699C90.6091 42.7375 90.5631 42.768 90.5131 42.7888C90.4621 42.8097 90.4081 42.8204 90.3541 42.8204C90.3001 42.8204 90.2461 42.8097 90.1951 42.7888C90.1451 42.768 90.1001 42.7375 90.0611 42.699L72.124 24.7607C71.8144 24.4508 71.3947 24.2761 70.9566 24.275C70.5185 24.2738 70.0979 24.4463 69.7866 24.7545C68.2184 26.3083 67.3809 28.5018 67.3809 31.0969C67.3706 35.3825 69.6231 40.3098 73.2596 43.9412L82.105 52.7866C83.3623 54.0411 85.0661 54.7458 86.8421 54.7461C87.4081 54.7464 87.9721 54.674 88.5201 54.5308C88.6571 54.4947 88.7991 54.4763 88.9411 54.4759C89.3571 54.476 89.7571 54.6331 90.0621 54.9159L91.2411 56.0049C91.5451 56.3155 91.7161 56.7326 91.7171 57.1674V57.7408C91.7141 59.0445 92.2271 60.2966 93.1431 61.2241L102.464 70.7031L102.474 70.7134C103.508 71.7479 104.911 72.329 106.374 72.3289C107.838 72.3288 109.241 71.7475 110.275 70.7129C111.31 69.6783 111.891 68.2751 111.891 66.8121C111.89 65.349 111.309 63.9459 110.275 62.9114L96.3021 48.9389C96.2641 48.9004 96.2331 48.8548 96.2121 48.8045C96.1911 48.7542 96.1811 48.7004 96.1811 48.6459C96.1811 48.5915 96.1911 48.5376 96.2121 48.4874C96.2331 48.4371 96.2641 48.3914 96.3021 48.353L99.9881 44.6668C100.142 44.5129 100.325 44.3907 100.526 44.3074C100.727 44.2241 100.942 44.1813 101.16 44.1813H102.014Z" fill="#234089"/>
<path d="M86.8416 58.0588C84.1896 58.0534 81.6471 57.0026 79.7651 55.1345L78.3304 53.6998C78.1751 53.5449 77.9648 53.458 77.7455 53.458C77.5262 53.458 77.3159 53.5449 77.1606 53.6998L68.3618 62.4531C66.7935 64.0214 66.2335 66.3297 67.0099 68.5905C67.0534 68.7179 67.105 68.8423 67.1641 68.9632C68.2086 71.1018 70.2354 72.344 72.4527 72.344C73.2153 72.3459 73.9706 72.1964 74.675 71.9043C75.3793 71.6122 76.0187 71.1832 76.5561 70.6422L88.2906 58.8518C88.3396 58.8014 88.3776 58.7408 88.4016 58.6743C88.4246 58.6078 88.4336 58.537 88.4276 58.4667V58.4398C88.4226 58.3752 88.4046 58.3123 88.3756 58.2547C88.3456 58.1972 88.3046 58.1462 88.2556 58.1049C88.2056 58.0636 88.1476 58.0328 88.0856 58.0144C88.0236 57.996 87.9586 57.9903 87.8946 57.9978C87.5446 58.0366 87.1936 58.0569 86.8416 58.0588Z" fill="#234089"/>
<path d="M160 20.125C164.832 20.125 168.75 15.6199 168.75 10.0625C168.75 4.50513 164.832 0 160 0C155.168 0 151.25 4.50513 151.25 10.0625C151.25 15.6199 155.168 20.125 160 20.125Z" fill="#234089"/>
<path d="M167.5 23H152.5C149.85 23.009 147.311 24.2235 145.438 26.3782C143.564 28.5329 142.508 31.4528 142.5 34.5V53.82C142.5 55.7696 143.817 57.4281 145.511 57.4982C145.931 57.5158 146.349 57.436 146.742 57.2634C147.134 57.0908 147.492 56.8291 147.794 56.4938C148.097 56.1585 148.337 55.7565 148.501 55.312C148.665 54.8674 148.75 54.3893 148.75 53.9062V35.986C148.746 35.6152 148.864 35.2563 149.081 34.9813C149.297 34.7064 149.596 34.5358 149.917 34.5036C150.088 34.4905 150.26 34.5181 150.421 34.5844C150.582 34.6508 150.73 34.7546 150.855 34.8894C150.98 35.0242 151.08 35.1871 151.148 35.3681C151.216 35.549 151.25 35.744 151.25 35.9411V87.8672C151.25 88.9633 151.629 90.0145 152.303 90.7895C152.977 91.5646 153.891 92 154.844 92C155.797 92 156.711 91.5646 157.385 90.7895C158.059 90.0145 158.438 88.9633 158.438 87.8672V62.233C158.432 61.7689 158.579 61.3196 158.849 60.9751C159.12 60.6305 159.493 60.4162 159.895 60.375C160.109 60.3585 160.324 60.3927 160.525 60.4756C160.727 60.5585 160.912 60.6882 161.068 60.8568C161.225 61.0253 161.349 61.229 161.434 61.4553C161.519 61.6815 161.563 61.9254 161.562 62.1719V87.8672C161.562 88.9633 161.941 90.0145 162.615 90.7895C163.289 91.5646 164.203 92 165.156 92C166.109 92 167.023 91.5646 167.697 90.7895C168.371 90.0145 168.75 88.9633 168.75 87.8672V35.986C168.746 35.6152 168.864 35.2563 169.081 34.9813C169.297 34.7064 169.596 34.5358 169.917 34.5036C170.088 34.4905 170.26 34.5181 170.421 34.5844C170.582 34.6508 170.73 34.7546 170.855 34.8894C170.98 35.0242 171.08 35.1871 171.148 35.3681C171.216 35.549 171.25 35.744 171.25 35.9411V53.8236C171.25 55.7732 172.567 57.4317 174.261 57.5018C174.681 57.5194 175.1 57.4395 175.492 57.2667C175.885 57.0939 176.243 56.8318 176.545 56.4961C176.848 56.1604 177.088 55.7581 177.252 55.3131C177.416 54.8681 177.5 54.3896 177.5 53.9062V34.5C177.492 31.4528 176.436 28.5329 174.562 26.3782C172.689 24.2235 170.15 23.009 167.5 23Z" fill="#234089"/>
<mask id="mask0_801_2256" style="mask-type:luminance" maskUnits="userSpaceOnUse" x="-16" y="1" width="75" height="91">
<path d="M59 1H-16V91.7895H59V1Z" fill="white"/>
</mask>
<g mask="url(#mask0_801_2256)">
<path d="M21.4629 20.8602C25.9933 20.8602 29.666 16.4143 29.666 10.9301C29.666 5.44586 25.9933 1 21.4629 1C16.9324 1 13.2598 5.44586 13.2598 10.9301C13.2598 16.4143 16.9324 20.8602 21.4629 20.8602Z" fill="#234089"/>
<path d="M41.8069 50.2778L40.2938 44.1761V44.1566L37.0037 30.8822H36.9964L36.6287 29.3838C36.2251 27.7408 35.3939 26.2995 34.2589 25.2745C33.124 24.2495 31.7459 23.6956 30.3299 23.6953H12.7518C11.3356 23.6947 9.9572 24.2483 8.8221 25.2734C7.6869 26.2985 6.8559 27.7403 6.4529 29.3838L6.0853 30.8822H6.0765L2.7864 44.1566V44.1761L1.2674 50.2778C0.810397 52.1202 1.6043 54.1186 3.1087 54.7357C3.4814 54.8893 3.8758 54.9503 4.2685 54.9153C4.6611 54.8802 5.0438 54.7497 5.3939 54.5315C5.7439 54.3134 6.054 54.0121 6.3057 53.6456C6.5574 53.2791 6.7455 52.855 6.8587 52.3986L10.6058 37.2818L10.9236 35.9997C11.0165 35.6864 11.1973 35.4226 11.4346 35.2544C11.6719 35.0862 11.9505 35.0244 12.2217 35.0798C12.4928 35.1351 12.7392 35.3042 12.9178 35.5573C13.0964 35.8104 13.1958 36.1315 13.1985 36.4643C13.1984 36.5603 13.1901 36.6559 13.1736 36.7498L6.7679 62.6017C6.6628 63.0253 6.6411 63.4728 6.7043 63.9084C6.7675 64.344 6.914 64.7556 7.132 65.1105C7.35 65.4654 7.6336 65.7537 7.96 65.9523C8.2864 66.151 8.6467 66.2545 9.012 66.2546H13.2601V86.5918C13.2601 89.5105 14.8025 91.7891 16.7757 91.7891C18.7488 91.7891 20.2913 89.5105 20.2913 86.5918V66.2546H22.6351V86.5918C22.6351 89.5105 24.1775 91.7891 26.1507 91.7891C28.1238 91.7891 29.6663 89.5105 29.6663 86.5918V66.2546H34.0608C34.4263 66.2548 34.7868 66.1514 35.1134 65.9529C35.44 65.7544 35.7237 65.4662 35.9419 65.1112C36.1601 64.7563 36.3067 64.3445 36.37 63.9088C36.4333 63.4731 36.4115 63.0255 36.3064 62.6017L29.8992 36.7462C29.8831 36.6535 29.8753 36.559 29.8758 36.4643C29.8773 36.1304 29.976 35.8079 30.1546 35.5535C30.3332 35.299 30.5802 35.129 30.8521 35.0733C31.124 35.0176 31.4035 35.0798 31.6413 35.2489C31.8791 35.418 32.06 35.6833 32.1522 35.9979L32.47 37.28L36.2156 52.3968C36.3294 52.8525 36.5177 53.2759 36.7695 53.6417C37.0213 54.0074 37.3313 54.308 37.6811 54.5256C38.0309 54.7432 38.4134 54.8734 38.8056 54.9082C39.1978 54.9431 39.5918 54.882 39.9642 54.7286C41.4686 54.1186 42.2625 52.1202 41.8069 50.2778Z" fill="#234089"/>
</g>
<path d="M122.783 14.9749L135.517 12.9697L127.413 22.9956L122.783 14.9749Z" fill="#D9D9D9" stroke="#234089" stroke-width="6"/>
<path d="M53.8362 24.9955L45.7324 14.9697L58.467 16.9748L53.8362 24.9955Z" fill="#D9D9D9" stroke="#234089" stroke-width="6"/>
<path d="M49 47C49 23.804 67.804 5 91 5C114.196 5 133 23.804 133 47C133 70.196 114.196 89 91 89C67.804 89 49 70.196 49 47Z" stroke="#234089" stroke-width="6"/>
<path d="M91 83.5C111.158 83.5 127.5 67.1584 127.5 47C127.5 26.8416 111.158 10.5 91 10.5C70.8416 10.5 54.5 26.8416 54.5 47C54.5 67.1584 70.8416 83.5 91 83.5Z" stroke="#234089"/>
</svg>
