<svg width="183" height="92" viewBox="0 0 183 92" fill="none" xmlns="http://www.w3.org/2000/svg">
<path d="M104.014 44.1813C105.102 44.1843 106.18 43.9714 107.186 43.5549C108.191 43.1384 109.104 42.5266 109.871 41.7549L117.842 33.7894C118.472 33.159 118.53 32.1331 117.93 31.4717C117.779 31.3055 117.596 31.1716 117.392 31.0783C117.188 30.9849 116.967 30.934 116.743 30.9286C116.519 30.9232 116.296 30.9634 116.087 31.0468C115.879 31.1301 115.69 31.255 115.531 31.4137L108.427 38.5128C108.188 38.751 107.865 38.8849 107.528 38.8849C107.191 38.8849 106.867 38.751 106.629 38.5128C106.133 38.018 106.16 37.1816 106.655 36.6868L113.728 29.6136C113.887 29.455 114.011 29.2659 114.095 29.0577C114.178 28.8495 114.218 28.6266 114.213 28.4024C114.207 28.1783 114.156 27.9575 114.063 27.7536C113.97 27.5497 113.836 27.3669 113.67 27.2161C113.37 26.9443 112.979 26.7947 112.575 26.7969C112.348 26.797 112.123 26.8418 111.913 26.9289C111.703 27.0159 111.513 27.1434 111.352 27.3041L104.285 34.3701C104.047 34.6083 103.723 34.7422 103.386 34.7422C103.049 34.7422 102.726 34.6083 102.487 34.3701C101.992 33.8753 102.018 33.0389 102.513 32.5441L109.586 25.4729C109.745 25.3144 109.87 25.1253 109.953 24.9171C110.036 24.7089 110.076 24.486 110.071 24.2618C110.065 24.0376 110.015 23.8169 109.921 23.613C109.828 23.4091 109.694 23.2262 109.528 23.0755C109.229 22.8036 108.838 22.654 108.433 22.6563C107.975 22.6568 107.535 22.8392 107.211 23.1635L99.2451 31.129C98.4731 31.8965 97.8621 32.8094 97.4451 33.8149C97.0291 34.8205 96.8161 35.8986 96.8191 36.987V37.8389C96.8191 38.0567 96.7761 38.2724 96.6931 38.4737C96.6091 38.6749 96.4871 38.8578 96.3331 39.0117L92.6471 42.699C92.6091 42.7375 92.5631 42.768 92.5131 42.7888C92.4621 42.8097 92.4081 42.8204 92.3541 42.8204C92.3001 42.8204 92.2461 42.8097 92.1951 42.7888C92.1451 42.768 92.1001 42.7375 92.0611 42.699L74.124 24.7607C73.8144 24.4508 73.3947 24.2761 72.9566 24.275C72.5185 24.2738 72.0979 24.4463 71.7866 24.7545C70.2184 26.3083 69.3809 28.5018 69.3809 31.0969C69.3706 35.3825 71.6231 40.3098 75.2596 43.9412L84.105 52.7866C85.3623 54.0411 87.0661 54.7458 88.8421 54.7461C89.4081 54.7464 89.9721 54.674 90.5201 54.5308C90.6571 54.4947 90.7991 54.4763 90.9411 54.4759C91.3571 54.476 91.7571 54.6331 92.0621 54.9159L93.2411 56.0049C93.5451 56.3155 93.7161 56.7326 93.7171 57.1674V57.7408C93.7141 59.0445 94.2271 60.2966 95.1431 61.2241L104.464 70.7031L104.474 70.7134C105.508 71.7479 106.911 72.329 108.374 72.3289C109.838 72.3288 111.241 71.7475 112.275 70.7129C113.31 69.6783 113.891 68.2751 113.891 66.8121C113.89 65.349 113.309 63.9459 112.275 62.9114L98.3021 48.9389C98.2641 48.9004 98.2331 48.8548 98.2121 48.8045C98.1911 48.7542 98.1811 48.7004 98.1811 48.6459C98.1811 48.5915 98.1911 48.5376 98.2121 48.4874C98.2331 48.4371 98.2641 48.3914 98.3021 48.353L101.988 44.6668C102.142 44.5129 102.325 44.3907 102.526 44.3074C102.727 44.2241 102.942 44.1813 103.16 44.1813H104.014Z" fill="#234089"/>
<path d="M88.8416 58.0588C86.1896 58.0534 83.6471 57.0026 81.7651 55.1345L80.3304 53.6998C80.1751 53.5449 79.9648 53.458 79.7455 53.458C79.5262 53.458 79.3159 53.5449 79.1606 53.6998L70.3618 62.4531C68.7935 64.0214 68.2335 66.3297 69.0099 68.5905C69.0534 68.7179 69.105 68.8423 69.1641 68.9632C70.2086 71.1018 72.2354 72.344 74.4527 72.344C75.2153 72.3459 75.9706 72.1964 76.675 71.9043C77.3793 71.6122 78.0187 71.1832 78.5561 70.6422L90.2906 58.8518C90.3396 58.8014 90.3776 58.7408 90.4016 58.6743C90.4246 58.6078 90.4336 58.537 90.4276 58.4667V58.4398C90.4226 58.3752 90.4046 58.3123 90.3756 58.2547C90.3456 58.1972 90.3046 58.1462 90.2556 58.1049C90.2056 58.0636 90.1476 58.0328 90.0856 58.0144C90.0236 57.996 89.9586 57.9903 89.8946 57.9978C89.5446 58.0366 89.1936 58.0569 88.8416 58.0588Z" fill="#234089"/>
<path d="M162 20.125C166.832 20.125 170.75 15.6199 170.75 10.0625C170.75 4.50513 166.832 0 162 0C157.168 0 153.25 4.50513 153.25 10.0625C153.25 15.6199 157.168 20.125 162 20.125Z" fill="#234089"/>
<path d="M169.5 23H154.5C151.85 23.009 149.311 24.2235 147.438 26.3782C145.564 28.5329 144.508 31.4528 144.5 34.5V53.82C144.5 55.7696 145.817 57.4281 147.511 57.4982C147.931 57.5158 148.349 57.436 148.742 57.2634C149.134 57.0908 149.492 56.8291 149.794 56.4938C150.097 56.1585 150.337 55.7565 150.501 55.312C150.665 54.8674 150.75 54.3893 150.75 53.9062V35.986C150.746 35.6152 150.864 35.2563 151.081 34.9813C151.297 34.7064 151.596 34.5358 151.917 34.5036C152.088 34.4905 152.26 34.5181 152.421 34.5844C152.582 34.6508 152.73 34.7546 152.855 34.8894C152.98 35.0242 153.08 35.1871 153.148 35.3681C153.216 35.549 153.25 35.744 153.25 35.9411V87.8672C153.25 88.9633 153.629 90.0145 154.303 90.7895C154.977 91.5646 155.891 92 156.844 92C157.797 92 158.711 91.5646 159.385 90.7895C160.059 90.0145 160.438 88.9633 160.438 87.8672V62.233C160.432 61.7689 160.579 61.3196 160.849 60.9751C161.12 60.6305 161.493 60.4162 161.895 60.375C162.109 60.3585 162.324 60.3927 162.525 60.4756C162.727 60.5585 162.912 60.6882 163.068 60.8568C163.225 61.0253 163.349 61.229 163.434 61.4553C163.519 61.6815 163.563 61.9254 163.562 62.1719V87.8672C163.562 88.9633 163.941 90.0145 164.615 90.7895C165.289 91.5646 166.203 92 167.156 92C168.109 92 169.023 91.5646 169.697 90.7895C170.371 90.0145 170.75 88.9633 170.75 87.8672V35.986C170.746 35.6152 170.864 35.2563 171.081 34.9813C171.297 34.7064 171.596 34.5358 171.917 34.5036C172.088 34.4905 172.26 34.5181 172.421 34.5844C172.582 34.6508 172.73 34.7546 172.855 34.8894C172.98 35.0242 173.08 35.1871 173.148 35.3681C173.216 35.549 173.25 35.744 173.25 35.9411V53.8236C173.25 55.7732 174.567 57.4317 176.261 57.5018C176.681 57.5194 177.1 57.4395 177.492 57.2667C177.885 57.0939 178.243 56.8318 178.545 56.4961C178.848 56.1604 179.088 55.7581 179.252 55.3131C179.416 54.8681 179.5 54.3896 179.5 53.9062V34.5C179.492 31.4528 178.436 28.5329 176.562 26.3782C174.689 24.2235 172.15 23.009 169.5 23Z" fill="#234089"/>
<mask id="mask0_908_82" style="mask-type:luminance" maskUnits="userSpaceOnUse" x="-14" y="1" width="75" height="91">
<path d="M61 1H-14V91.7895H61V1Z" fill="white"/>
</mask>
<g mask="url(#mask0_908_82)">
<path d="M23.4629 20.8602C27.9933 20.8602 31.666 16.4143 31.666 10.9301C31.666 5.44586 27.9933 1 23.4629 1C18.9324 1 15.2598 5.44586 15.2598 10.9301C15.2598 16.4143 18.9324 20.8602 23.4629 20.8602Z" fill="#234089"/>
<path d="M43.8069 50.2778L42.2938 44.1761V44.1566L39.0037 30.8822H38.9964L38.6287 29.3838C38.2251 27.7408 37.3939 26.2995 36.2589 25.2745C35.124 24.2495 33.7459 23.6956 32.3299 23.6953H14.7518C13.3356 23.6947 11.9572 24.2483 10.8221 25.2734C9.6869 26.2985 8.8559 27.7403 8.4529 29.3838L8.0853 30.8822H8.0765L4.7864 44.1566V44.1761L3.2674 50.2778C2.8104 52.1202 3.6043 54.1186 5.1087 54.7357C5.4814 54.8893 5.8758 54.9503 6.2685 54.9153C6.6611 54.8802 7.0438 54.7497 7.3939 54.5315C7.7439 54.3134 8.054 54.0121 8.3057 53.6456C8.5574 53.2791 8.7455 52.855 8.8587 52.3986L12.6058 37.2818L12.9236 35.9997C13.0165 35.6864 13.1973 35.4226 13.4346 35.2544C13.6719 35.0862 13.9505 35.0244 14.2217 35.0798C14.4928 35.1351 14.7392 35.3042 14.9178 35.5573C15.0964 35.8104 15.1958 36.1315 15.1985 36.4643C15.1984 36.5603 15.1901 36.6559 15.1736 36.7498L8.7679 62.6017C8.6628 63.0253 8.6411 63.4728 8.7043 63.9084C8.7675 64.344 8.914 64.7556 9.132 65.1105C9.35 65.4654 9.6336 65.7537 9.96 65.9523C10.2864 66.151 10.6467 66.2545 11.012 66.2546H15.2601V86.5918C15.2601 89.5105 16.8025 91.7891 18.7757 91.7891C20.7488 91.7891 22.2913 89.5105 22.2913 86.5918V66.2546H24.6351V86.5918C24.6351 89.5105 26.1775 91.7891 28.1507 91.7891C30.1238 91.7891 31.6663 89.5105 31.6663 86.5918V66.2546H36.0608C36.4263 66.2548 36.7868 66.1514 37.1134 65.9529C37.44 65.7544 37.7237 65.4662 37.9419 65.1112C38.1601 64.7563 38.3067 64.3445 38.37 63.9088C38.4333 63.4731 38.4115 63.0255 38.3064 62.6017L31.8992 36.7462C31.8831 36.6535 31.8753 36.559 31.8758 36.4643C31.8773 36.1304 31.976 35.8079 32.1546 35.5535C32.3332 35.299 32.5802 35.129 32.8521 35.0733C33.124 35.0176 33.4035 35.0798 33.6413 35.2489C33.8791 35.418 34.06 35.6833 34.1522 35.9979L34.47 37.28L38.2156 52.3968C38.3294 52.8525 38.5177 53.2759 38.7695 53.6417C39.0213 54.0074 39.3313 54.308 39.6811 54.5256C40.0309 54.7432 40.4134 54.8734 40.8056 54.9082C41.1978 54.9431 41.5918 54.882 41.9642 54.7286C43.4686 54.1186 44.2625 52.1202 43.8069 50.2778Z" fill="#234089"/>
</g>
<path d="M124.783 14.9749L137.517 12.9697L129.413 22.9956L124.783 14.9749Z" fill="#D9D9D9" stroke="#234089" stroke-width="6"/>
<path d="M55.8362 24.9955L47.7324 14.9697L60.467 16.9748L55.8362 24.9955Z" fill="#D9D9D9" stroke="#234089" stroke-width="6"/>
<path d="M51 47C51 23.804 69.804 5 93 5C116.196 5 135 23.804 135 47C135 70.196 116.196 89 93 89C69.804 89 51 70.196 51 47Z" stroke="#234089" stroke-width="6"/>
<path d="M93 83.5C113.158 83.5 129.5 67.1584 129.5 47C129.5 26.8416 113.158 10.5 93 10.5C72.8416 10.5 56.5 26.8416 56.5 47C56.5 67.1584 72.8416 83.5 93 83.5Z" stroke="#234089"/>
</svg>
