<svg width="182" height="92" viewBox="0 0 182 92" fill="none" xmlns="http://www.w3.org/2000/svg">
<path d="M103.014 44.1813C104.102 44.1843 105.18 43.9714 106.186 43.5549C107.191 43.1384 108.104 42.5266 108.871 41.7549L116.842 33.7894C117.472 33.159 117.53 32.1331 116.93 31.4717C116.779 31.3055 116.596 31.1716 116.392 31.0783C116.188 30.9849 115.967 30.934 115.743 30.9286C115.519 30.9232 115.296 30.9634 115.087 31.0468C114.879 31.1301 114.69 31.255 114.531 31.4137L107.427 38.5128C107.188 38.751 106.865 38.8849 106.528 38.8849C106.191 38.8849 105.867 38.751 105.629 38.5128C105.133 38.018 105.16 37.1816 105.655 36.6868L112.728 29.6136C112.887 29.455 113.011 29.2659 113.095 29.0577C113.178 28.8495 113.218 28.6266 113.213 28.4024C113.207 28.1783 113.156 27.9575 113.063 27.7536C112.97 27.5497 112.836 27.3669 112.67 27.2161C112.37 26.9443 111.979 26.7947 111.575 26.7969C111.348 26.797 111.123 26.8418 110.913 26.9289C110.703 27.0159 110.513 27.1434 110.352 27.3041L103.285 34.3701C103.047 34.6083 102.723 34.7422 102.386 34.7422C102.049 34.7422 101.726 34.6083 101.487 34.3701C100.992 33.8753 101.018 33.0389 101.513 32.5441L108.586 25.4729C108.745 25.3144 108.87 25.1253 108.953 24.9171C109.036 24.7089 109.076 24.486 109.071 24.2618C109.065 24.0376 109.015 23.8169 108.921 23.613C108.828 23.4091 108.694 23.2262 108.528 23.0755C108.229 22.8036 107.838 22.654 107.433 22.6563C106.975 22.6568 106.535 22.8392 106.211 23.1635L98.2451 31.129C97.4731 31.8965 96.8621 32.8094 96.4451 33.8149C96.0291 34.8205 95.8161 35.8986 95.8191 36.987V37.8389C95.8191 38.0567 95.7761 38.2724 95.6931 38.4737C95.6091 38.6749 95.4871 38.8578 95.3331 39.0117L91.6471 42.699C91.6091 42.7375 91.5631 42.768 91.5131 42.7888C91.4621 42.8097 91.4081 42.8204 91.3541 42.8204C91.3001 42.8204 91.2461 42.8097 91.1951 42.7888C91.1451 42.768 91.1001 42.7375 91.0611 42.699L73.124 24.7607C72.8144 24.4508 72.3947 24.2761 71.9566 24.275C71.5185 24.2738 71.0979 24.4463 70.7866 24.7545C69.2184 26.3083 68.3809 28.5018 68.3809 31.0969C68.3706 35.3825 70.6231 40.3098 74.2596 43.9412L83.105 52.7866C84.3623 54.0411 86.0661 54.7458 87.8421 54.7461C88.4081 54.7464 88.9721 54.674 89.5201 54.5308C89.6571 54.4947 89.7991 54.4763 89.9411 54.4759C90.3571 54.476 90.7571 54.6331 91.0621 54.9159L92.2411 56.0049C92.5451 56.3155 92.7161 56.7326 92.7171 57.1674V57.7408C92.7141 59.0445 93.2271 60.2966 94.1431 61.2241L103.464 70.7031L103.474 70.7134C104.508 71.7479 105.911 72.329 107.374 72.3289C108.838 72.3288 110.241 71.7475 111.275 70.7129C112.31 69.6783 112.891 68.2751 112.891 66.8121C112.89 65.349 112.309 63.9459 111.275 62.9114L97.3021 48.9389C97.2641 48.9004 97.2331 48.8548 97.2121 48.8045C97.1911 48.7542 97.1811 48.7004 97.1811 48.6459C97.1811 48.5915 97.1911 48.5376 97.2121 48.4874C97.2331 48.4371 97.2641 48.3914 97.3021 48.353L100.988 44.6668C101.142 44.5129 101.325 44.3907 101.526 44.3074C101.727 44.2241 101.942 44.1813 102.16 44.1813H103.014Z" fill="#5078BF"/>
<path d="M87.8416 58.0588C85.1896 58.0534 82.6471 57.0026 80.7651 55.1345L79.3304 53.6998C79.1751 53.5449 78.9648 53.458 78.7455 53.458C78.5262 53.458 78.3159 53.5449 78.1606 53.6998L69.3618 62.4531C67.7935 64.0214 67.2335 66.3297 68.0099 68.5905C68.0534 68.7179 68.105 68.8423 68.1641 68.9632C69.2086 71.1018 71.2354 72.344 73.4527 72.344C74.2153 72.3459 74.9706 72.1964 75.675 71.9043C76.3793 71.6122 77.0187 71.1832 77.5561 70.6422L89.2906 58.8518C89.3396 58.8014 89.3776 58.7408 89.4016 58.6743C89.4246 58.6078 89.4336 58.537 89.4276 58.4667V58.4398C89.4226 58.3752 89.4046 58.3123 89.3756 58.2547C89.3456 58.1972 89.3046 58.1462 89.2556 58.1049C89.2056 58.0636 89.1476 58.0328 89.0856 58.0144C89.0236 57.996 88.9586 57.9903 88.8946 57.9978C88.5446 58.0366 88.1936 58.0569 87.8416 58.0588Z" fill="#5078BF"/>
<path d="M161 20.125C165.832 20.125 169.75 15.6199 169.75 10.0625C169.75 4.50513 165.832 0 161 0C156.168 0 152.25 4.50513 152.25 10.0625C152.25 15.6199 156.168 20.125 161 20.125Z" fill="#5078BF"/>
<path d="M168.5 23H153.5C150.85 23.009 148.311 24.2235 146.438 26.3782C144.564 28.5329 143.508 31.4528 143.5 34.5V53.82C143.5 55.7696 144.817 57.4281 146.511 57.4982C146.931 57.5158 147.349 57.436 147.742 57.2634C148.134 57.0908 148.492 56.8291 148.794 56.4938C149.097 56.1585 149.337 55.7565 149.501 55.312C149.665 54.8674 149.75 54.3893 149.75 53.9062V35.986C149.746 35.6152 149.864 35.2563 150.081 34.9813C150.297 34.7064 150.596 34.5358 150.917 34.5036C151.088 34.4905 151.26 34.5181 151.421 34.5844C151.582 34.6508 151.73 34.7546 151.855 34.8894C151.98 35.0242 152.08 35.1871 152.148 35.3681C152.216 35.549 152.25 35.744 152.25 35.9411V87.8672C152.25 88.9633 152.629 90.0145 153.303 90.7895C153.977 91.5646 154.891 92 155.844 92C156.797 92 157.711 91.5646 158.385 90.7895C159.059 90.0145 159.438 88.9633 159.438 87.8672V62.233C159.432 61.7689 159.579 61.3196 159.849 60.9751C160.12 60.6305 160.493 60.4162 160.895 60.375C161.109 60.3585 161.324 60.3927 161.525 60.4756C161.727 60.5585 161.912 60.6882 162.068 60.8568C162.225 61.0253 162.349 61.229 162.434 61.4553C162.519 61.6815 162.563 61.9254 162.562 62.1719V87.8672C162.562 88.9633 162.941 90.0145 163.615 90.7895C164.289 91.5646 165.203 92 166.156 92C167.109 92 168.023 91.5646 168.697 90.7895C169.371 90.0145 169.75 88.9633 169.75 87.8672V35.986C169.746 35.6152 169.864 35.2563 170.081 34.9813C170.297 34.7064 170.596 34.5358 170.917 34.5036C171.088 34.4905 171.26 34.5181 171.421 34.5844C171.582 34.6508 171.73 34.7546 171.855 34.8894C171.98 35.0242 172.08 35.1871 172.148 35.3681C172.216 35.549 172.25 35.744 172.25 35.9411V53.8236C172.25 55.7732 173.567 57.4317 175.261 57.5018C175.681 57.5194 176.1 57.4395 176.492 57.2667C176.885 57.0939 177.243 56.8318 177.545 56.4961C177.848 56.1604 178.088 55.7581 178.252 55.3131C178.416 54.8681 178.5 54.3896 178.5 53.9062V34.5C178.492 31.4528 177.436 28.5329 175.562 26.3782C173.689 24.2235 171.15 23.009 168.5 23Z" fill="#5078BF"/>
<mask id="mask0_906_119" style="mask-type:luminance" maskUnits="userSpaceOnUse" x="-15" y="1" width="75" height="91">
<path d="M60 1H-15V91.7895H60V1Z" fill="white"/>
</mask>
<g mask="url(#mask0_906_119)">
<path d="M22.4629 20.8602C26.9933 20.8602 30.666 16.4143 30.666 10.9301C30.666 5.44586 26.9933 1 22.4629 1C17.9324 1 14.2598 5.44586 14.2598 10.9301C14.2598 16.4143 17.9324 20.8602 22.4629 20.8602Z" fill="#5078BF"/>
<path d="M42.8069 50.2778L41.2938 44.1761V44.1566L38.0037 30.8822H37.9964L37.6287 29.3838C37.2251 27.7408 36.3939 26.2995 35.2589 25.2745C34.124 24.2495 32.7459 23.6956 31.3299 23.6953H13.7518C12.3356 23.6947 10.9572 24.2483 9.8221 25.2734C8.6869 26.2985 7.8559 27.7403 7.4529 29.3838L7.0853 30.8822H7.0765L3.7864 44.1566V44.1761L2.2674 50.2778C1.8104 52.1202 2.6043 54.1186 4.1087 54.7357C4.4814 54.8893 4.8758 54.9503 5.2685 54.9153C5.6611 54.8802 6.0438 54.7497 6.3939 54.5315C6.7439 54.3134 7.054 54.0121 7.3057 53.6456C7.5574 53.2791 7.7455 52.855 7.8587 52.3986L11.6058 37.2818L11.9236 35.9997C12.0165 35.6864 12.1973 35.4226 12.4346 35.2544C12.6719 35.0862 12.9505 35.0244 13.2217 35.0798C13.4928 35.1351 13.7392 35.3042 13.9178 35.5573C14.0964 35.8104 14.1958 36.1315 14.1985 36.4643C14.1984 36.5603 14.1901 36.6559 14.1736 36.7498L7.7679 62.6017C7.6628 63.0253 7.6411 63.4728 7.7043 63.9084C7.7675 64.344 7.914 64.7556 8.132 65.1105C8.35 65.4654 8.6336 65.7537 8.96 65.9523C9.2864 66.151 9.6467 66.2545 10.012 66.2546H14.2601V86.5918C14.2601 89.5105 15.8025 91.7891 17.7757 91.7891C19.7488 91.7891 21.2913 89.5105 21.2913 86.5918V66.2546H23.6351V86.5918C23.6351 89.5105 25.1775 91.7891 27.1507 91.7891C29.1238 91.7891 30.6663 89.5105 30.6663 86.5918V66.2546H35.0608C35.4263 66.2548 35.7868 66.1514 36.1134 65.9529C36.44 65.7544 36.7237 65.4662 36.9419 65.1112C37.1601 64.7563 37.3067 64.3445 37.37 63.9088C37.4333 63.4731 37.4115 63.0255 37.3064 62.6017L30.8992 36.7462C30.8831 36.6535 30.8753 36.559 30.8758 36.4643C30.8773 36.1304 30.976 35.8079 31.1546 35.5535C31.3332 35.299 31.5802 35.129 31.8521 35.0733C32.124 35.0176 32.4035 35.0798 32.6413 35.2489C32.8791 35.418 33.06 35.6833 33.1522 35.9979L33.47 37.28L37.2156 52.3968C37.3294 52.8525 37.5177 53.2759 37.7695 53.6417C38.0213 54.0074 38.3313 54.308 38.6811 54.5256C39.0309 54.7432 39.4134 54.8734 39.8056 54.9082C40.1978 54.9431 40.5918 54.882 40.9642 54.7286C42.4686 54.1186 43.2625 52.1202 42.8069 50.2778Z" fill="#5078BF"/>
</g>
<path d="M123.783 14.9749L136.517 12.9697L128.413 22.9956L123.783 14.9749Z" fill="#D9D9D9" stroke="#5078BF" stroke-width="6"/>
<path d="M54.8362 24.9955L46.7324 14.9697L59.467 16.9748L54.8362 24.9955Z" fill="#D9D9D9" stroke="#5078BF" stroke-width="6"/>
<path d="M50 47C50 23.804 68.804 5 92 5C115.196 5 134 23.804 134 47C134 70.196 115.196 89 92 89C68.804 89 50 70.196 50 47Z" stroke="#5078BF" stroke-width="6"/>
<path d="M92 83.5C112.158 83.5 128.5 67.1584 128.5 47C128.5 26.8416 112.158 10.5 92 10.5C71.8416 10.5 55.5 26.8416 55.5 47C55.5 67.1584 71.8416 83.5 92 83.5Z" stroke="#5078BF"/>
</svg>
